# xmcd
#
# Track frame offsets:
#	150
#	16505
#	32770
#	49047
#
# Disc length: 868 seconds
#
# Revision: 0
# Processed by: cddbd v1.5PL3 Copyright (c) Steve Scherf et al.
# Submitted via: audiograbber 1.82.01
#
DISCID=21036204
DTITLE=Brandy and Kanye West - Talk About Our Love
DYEAR=2004
DGENRE=R&B
TTITLE0=Talk About Our Love (Album)
TTITLE1=Talk About Our Love (Instrumental)
TTITLE2=Talk About Our Love (TV Track)
TTITLE3=Talk About Our Love (Acapella)
EXTD=
EXTT0=
EXTT1=
EXTT2=
EXTT3=
PLAYORDER=
